<?xml version="1.0" encoding="utf-8"?>
<!-- Generator: Adobe Illustrator 19.1.0, SVG Export Plug-In . SVG Version: 6.00 Build 0)  -->
<svg version="1.1" id="Layer_1" xmlns="http://www.w3.org/2000/svg" xmlns:xlink="http://www.w3.org/1999/xlink"
   x="0px" y="0px" width="400" height="400" viewBox="0 0 443.4 443.4" enable-background="new 0 0 443.4 443.4"
   xml:space="preserve">
<g>
  <circle fill="#FFFFFF" cx="221.7" cy="221.7" r="221.7"/>
  <path fill="#164B73" d="M75.1,291.7c-10.2-21.3-15.9-45.1-15.9-70.2c0-76.5,52.8-140.6,124-157.9l-18.9,39.9
    c-43.7,21.3-73.8,66.2-73.8,118c0,10.4,1.2,20.6,3.6,30.3L75.1,291.7z M320.9,350.2c-27.5,21.2-61.9,33.9-99.2,33.9
    c-37.4,0-71.8-12.6-99.2-33.9l34.4-14.5c19.1,10.9,41.2,17.1,64.8,17.1s45.7-6.2,64.8-17.1L320.9,350.2z M260.2,63.6
    c71.2,17.3,124,81.5,124,157.9c0,25.2-5.7,49-15.9,70.2l-18.9-39.9c2.3-9.7,3.6-19.9,3.6-30.3c0-51.9-30.1-96.8-73.8-118.1
    L260.2,63.6z"/>
  <path fill="#2BACE2" d="M221.7,291.4l77.6,32.7l-19.6-41.2l-58-24.5l-58,24.5l-19.5,41.2 M221.7,18.5L60.1,359.6l42-17.7l19.5-41.2
    l61.6-129.9l38.5-81.3l54.1,114.1l46,97.1l19.5,41.2l42,17.7L221.7,18.5z"/>
  <polygon fill="#2BACE2" points="221.7,160.4 183.2,241.7 221.7,225.5 260.2,241.7"/>
</g>
</svg>
